# xmcd CD database file
#
# Track frame offsets:
#	150
#	19176
#	32715
#	49726
#	69589
#	93963
#	111005
#	126972
#	143381
#	165341
#	176977
#
# Disc length: 3452 seconds
#
# Revision: 4
# Processed by: cddbd v1.5.2PL0 Copyright (c) Steve Scherf et al.
# Submitted via: CDex 1.51
#
DISCID=8c0d7a0b
DTITLE=Melody Gardot - The Absence
DYEAR=2012
DGENRE=Jazz
TTITLE0=Mira
TTITLE1=Amalia
TTITLE2=So Long
TTITLE3=So We Meet Again My Heartache
TTITLE4=Lisboa
TTITLE5=Impossible Love
TTITLE6=If I Tell You I Love You
TTITLE7=Goodbye
TTITLE8=Se Voce Me Ama
TTITLE9=My Heart Won't Have It Any Other Way
TTITLE10=Iemanja
EXTD=YEAR: 2012
EXTT0=
EXTT1=
EXTT2=
EXTT3=
EXTT4=
EXTT5=
EXTT6=
EXTT7=
EXTT8=
EXTT9=
EXTT10=
PLAYORDER=
